<svg width="24" height="24" viewBox="0 0 24 24" fill="none" xmlns="http://www.w3.org/2000/svg">
<path d="M3.75215 13.75C3.79659 13.75 3.86604 13.7528 3.96048 13.7583C4.06048 13.7639 4.15493 13.7694 4.24382 13.775C4.3327 13.7806 4.43548 13.7861 4.55215 13.7917C4.67437 13.7917 4.78826 13.7917 4.89382 13.7917C4.91048 13.7917 4.92437 13.7917 4.93548 13.7917C5.04104 14.1306 5.12159 14.5528 5.17715 15.0583C5.23826 15.5583 5.28548 15.9889 5.31882 16.35C5.35215 16.7056 5.39937 16.9222 5.46048 17H8.53548C8.41881 16.85 8.31048 16.625 8.21048 16.325C8.11604 16.025 8.02993 15.7222 7.95215 15.4167C7.87993 15.1056 7.79381 14.8 7.69381 14.5C7.59382 14.1944 7.45215 13.9306 7.26882 13.7083C7.09104 13.4861 6.87715 13.3444 6.62715 13.2833C7.08826 12.9889 7.4577 12.5917 7.73548 12.0917C8.01882 11.5917 8.16048 11.0194 8.16048 10.375C8.16048 9.28611 7.86326 8.47778 7.26882 7.95C6.67993 7.42222 5.78548 7.15833 4.58548 7.15833C4.24104 7.15833 3.80493 7.17222 3.27715 7.2C2.74937 7.22222 2.35215 7.23333 2.08548 7.23333H0.985482V17H3.75215V13.75ZM3.75215 12.2V8.76667H3.91048C4.3827 8.76667 4.74382 8.86389 4.99381 9.05833C5.24937 9.24722 5.37715 9.58333 5.37715 10.0667V10.725C5.37715 10.9472 5.36048 11.1417 5.32715 11.3083C5.29382 11.475 5.24382 11.6111 5.17715 11.7167C5.11048 11.8222 5.03826 11.9083 4.96048 11.975C4.88826 12.0417 4.79382 12.0917 4.67715 12.125C4.56604 12.1528 4.46326 12.1722 4.36882 12.1833C4.27437 12.1944 4.1577 12.2 4.01882 12.2H3.75215ZM14.9755 17V14.9167L11.8255 15V12.7833L14.0755 12.95V11H11.8255V9.11667L14.6838 9.2L14.8505 7.23333H9.06712V17H14.9755ZM21.6822 16.1167L21.7822 17H23.2655L23.2738 11.2667H19.5655V12.9667L20.6655 13.2167V14.0667C20.6655 14.3667 20.6377 14.6139 20.5822 14.8083C20.5266 14.9972 20.4405 15.1417 20.3238 15.2417C20.2072 15.3361 20.0822 15.4028 19.9488 15.4417C19.8155 15.475 19.6516 15.4917 19.4572 15.4917C19.0627 15.4917 18.7988 15.2 18.6655 14.6167C18.5377 14.0333 18.4738 13.1389 18.4738 11.9333C18.4738 11.3556 18.4988 10.8667 18.5488 10.4667C18.5988 10.0611 18.6627 9.74167 18.7405 9.50833C18.8238 9.26944 18.9349 9.08889 19.0738 8.96667C19.2183 8.83889 19.3627 8.75556 19.5072 8.71667C19.6516 8.67778 19.8349 8.65833 20.0572 8.65833C20.3294 8.65833 20.5266 8.69167 20.6488 8.75833L21.1238 9.86667H22.6405L22.7655 7.95C22.7544 7.93889 22.7377 7.92222 22.7155 7.9C22.6988 7.87778 22.6516 7.83611 22.5738 7.775C22.4961 7.71389 22.4099 7.65833 22.3155 7.60833C22.2266 7.55278 22.1016 7.49167 21.9405 7.425C21.7849 7.35278 21.6183 7.29444 21.4405 7.25C21.2627 7.2 21.0461 7.15833 20.7905 7.125C20.5405 7.09167 20.2766 7.075 19.9988 7.075C19.3822 7.075 18.8322 7.13056 18.3488 7.24167C17.8655 7.34722 17.4544 7.50833 17.1155 7.725C16.7766 7.94167 16.4905 8.19722 16.2572 8.49167C16.0238 8.78056 15.8405 9.125 15.7072 9.525C15.5738 9.925 15.4766 10.3444 15.4155 10.7833C15.3599 11.2222 15.3322 11.7167 15.3322 12.2667C15.3322 13.0056 15.3988 13.6639 15.5322 14.2417C15.6711 14.8194 15.8877 15.3333 16.1822 15.7833C16.4766 16.2333 16.8738 16.5778 17.3738 16.8167C17.8794 17.0556 18.4766 17.175 19.1655 17.175C20.1377 17.175 20.9766 16.8222 21.6822 16.1167Z" fill="black"/>
</svg>
